<svg xmlns="http://www.w3.org/2000/svg" xmlns:xlink="http://www.w3.org/1999/xlink" id="processonSvg1000" viewBox="-29.600006103515625 -26.399993896484375 1169.1999969482422 931.9999923706055" width="1169.1999969482422" height="931.9999923706055"><defs id="ProcessOnDefs1001"><marker id="ProcessOnMarker1052" markerUnits="userSpaceOnUse" orient="auto" markerWidth="16.23606797749979" markerHeight="10.550836550532098" viewBox="-1.0 -1.3763819204711736 16.23606797749979 10.550836550532098" refX="-1.0" refY="3.8990363547948754"><path id="ProcessOnPath1053" d="M12.0 3.8990363547948754L0.0 7.798072709589751V0.0Z" stroke="#323232" stroke-width="2.0" fill="#323232" transform="matrix(1.0,0.0,0.0,1.0,0.0,0.0)"/></marker><marker id="ProcessOnMarker1056" markerUnits="userSpaceOnUse" orient="auto" markerWidth="16.23606797749979" markerHeight="10.550836550532098" viewBox="-1.0 -1.3763819204711736 16.23606797749979 10.550836550532098" refX="-1.0" refY="3.8990363547948754"><path id="ProcessOnPath1057" d="M12.0 3.8990363547948754L0.0 7.798072709589751V0.0Z" stroke="#323232" stroke-width="2.0" fill="#323232" transform="matrix(1.0,0.0,0.0,1.0,0.0,0.0)"/></marker><marker id="ProcessOnMarker1060" markerUnits="userSpaceOnUse" orient="auto" markerWidth="16.23606797749979" markerHeight="10.550836550532098" viewBox="-1.0 -1.3763819204711736 16.23606797749979 10.550836550532098" refX="-1.0" refY="3.8990363547948754"><path id="ProcessOnPath1061" d="M12.0 3.8990363547948754L0.0 7.798072709589751V0.0Z" stroke="#323232" stroke-width="2.0" fill="#323232" transform="matrix(1.0,0.0,0.0,1.0,0.0,0.0)"/></marker><marker id="ProcessOnMarker1064" markerUnits="userSpaceOnUse" orient="auto" markerWidth="16.23606797749979" markerHeight="10.550836550532098" viewBox="-1.0 -1.3763819204711736 16.23606797749979 10.550836550532098" refX="-1.0" refY="3.8990363547948754"><path id="ProcessOnPath1065" d="M12.0 3.8990363547948754L0.0 7.798072709589751V0.0Z" stroke="#323232" stroke-width="2.0" fill="#323232" transform="matrix(1.0,0.0,0.0,1.0,0.0,0.0)"/></marker><marker id="ProcessOnMarker1076" markerUnits="userSpaceOnUse" orient="auto" markerWidth="16.23606797749979" markerHeight="10.550836550532098" viewBox="-1.0 -1.3763819204711736 16.23606797749979 10.550836550532098" refX="-1.0" refY="3.8990363547948754"><path id="ProcessOnPath1077" d="M12.0 3.8990363547948754L0.0 7.798072709589751V0.0Z" stroke="#323232" stroke-width="2.0" fill="#323232" transform="matrix(1.0,0.0,0.0,1.0,0.0,0.0)"/></marker><marker id="ProcessOnMarker1080" markerUnits="userSpaceOnUse" orient="auto" markerWidth="16.23606797749979" markerHeight="10.550836550532098" viewBox="-1.0 -1.3763819204711736 16.23606797749979 10.550836550532098" refX="-1.0" refY="3.8990363547948754"><path id="ProcessOnPath1081" d="M12.0 3.8990363547948754L0.0 7.798072709589751V0.0Z" stroke="#323232" stroke-width="2.0" fill="#323232" transform="matrix(1.0,0.0,0.0,1.0,0.0,0.0)"/></marker><marker id="ProcessOnMarker1088" markerUnits="userSpaceOnUse" orient="auto" markerWidth="16.23606797749979" markerHeight="10.550836550532098" viewBox="-1.0 -1.3763819204711736 16.23606797749979 10.550836550532098" refX="-1.0" refY="3.8990363547948754"><path id="ProcessOnPath1089" d="M12.0 3.8990363547948754L0.0 7.798072709589751V0.0Z" stroke="#323232" stroke-width="2.0" fill="#323232" transform="matrix(1.0,0.0,0.0,1.0,0.0,0.0)"/></marker><marker id="ProcessOnMarker1092" markerUnits="userSpaceOnUse" orient="auto" markerWidth="16.23606797749979" markerHeight="10.550836550532098" viewBox="-1.0 -1.3763819204711736 16.23606797749979 10.550836550532098" refX="-1.0" refY="3.8990363547948754"><path id="ProcessOnPath1093" d="M12.0 3.8990363547948754L0.0 7.798072709589751V0.0Z" stroke="#323232" stroke-width="2.0" fill="#323232" transform="matrix(1.0,0.0,0.0,1.0,0.0,0.0)"/></marker><marker id="ProcessOnMarker1104" markerUnits="userSpaceOnUse" orient="auto" markerWidth="16.23606797749979" markerHeight="10.550836550532098" viewBox="-1.0 -1.3763819204711736 16.23606797749979 10.550836550532098" refX="-1.0" refY="3.8990363547948754"><path id="ProcessOnPath1105" d="M12.0 3.8990363547948754L0.0 7.798072709589751V0.0Z" stroke="#323232" stroke-width="2.0" fill="#323232" transform="matrix(1.0,0.0,0.0,1.0,0.0,0.0)"/></marker><marker id="ProcessOnMarker1108" markerUnits="userSpaceOnUse" orient="auto" markerWidth="16.23606797749979" markerHeight="10.550836550532098" viewBox="-1.0 -1.3763819204711736 16.23606797749979 10.550836550532098" refX="-1.0" refY="3.8990363547948754"><path id="ProcessOnPath1109" d="M12.0 3.8990363547948754L0.0 7.798072709589751V0.0Z" stroke="#323232" stroke-width="2.0" fill="#323232" transform="matrix(1.0,0.0,0.0,1.0,0.0,0.0)"/></marker><marker id="ProcessOnMarker1112" markerUnits="userSpaceOnUse" orient="auto" markerWidth="16.23606797749979" markerHeight="10.550836550532098" viewBox="-1.0 -1.3763819204711736 16.23606797749979 10.550836550532098" refX="-1.0" refY="3.8990363547948754"><path id="ProcessOnPath1113" d="M12.0 3.8990363547948754L0.0 7.798072709589751V0.0Z" stroke="#323232" stroke-width="2.0" fill="#323232" transform="matrix(1.0,0.0,0.0,1.0,0.0,0.0)"/></marker><marker id="ProcessOnMarker1116" markerUnits="userSpaceOnUse" orient="auto" markerWidth="16.23606797749979" markerHeight="10.550836550532098" viewBox="-1.0 -1.3763819204711736 16.23606797749979 10.550836550532098" refX="-1.0" refY="3.8990363547948754"><path id="ProcessOnPath1117" d="M12.0 3.8990363547948754L0.0 7.798072709589751V0.0Z" stroke="#323232" stroke-width="2.0" fill="#323232" transform="matrix(1.0,0.0,0.0,1.0,0.0,0.0)"/></marker><marker id="ProcessOnMarker1120" markerUnits="userSpaceOnUse" orient="auto" markerWidth="16.23606797749979" markerHeight="10.550836550532098" viewBox="-1.0 -1.3763819204711736 16.23606797749979 10.550836550532098" refX="-1.0" refY="3.8990363547948754"><path id="ProcessOnPath1121" d="M12.0 3.8990363547948754L0.0 7.798072709589751V0.0Z" stroke="#323232" stroke-width="2.0" fill="#323232" transform="matrix(1.0,0.0,0.0,1.0,0.0,0.0)"/></marker><marker id="ProcessOnMarker1124" markerUnits="userSpaceOnUse" orient="auto" markerWidth="16.23606797749979" markerHeight="10.550836550532098" viewBox="-1.0 -1.3763819204711736 16.23606797749979 10.550836550532098" refX="-1.0" refY="3.8990363547948754"><path id="ProcessOnPath1125" d="M12.0 3.8990363547948754L0.0 7.798072709589751V0.0Z" stroke="#323232" stroke-width="2.0" fill="#323232" transform="matrix(1.0,0.0,0.0,1.0,0.0,0.0)"/></marker><marker id="ProcessOnMarker1128" markerUnits="userSpaceOnUse" orient="auto" markerWidth="16.23606797749979" markerHeight="10.550836550532098" viewBox="-1.0 -1.3763819204711736 16.23606797749979 10.550836550532098" refX="-1.0" refY="3.8990363547948754"><path id="ProcessOnPath1129" d="M12.0 3.8990363547948754L0.0 7.798072709589751V0.0Z" stroke="#323232" stroke-width="2.0" fill="#323232" transform="matrix(1.0,0.0,0.0,1.0,0.0,0.0)"/></marker><marker id="ProcessOnMarker1140" markerUnits="userSpaceOnUse" orient="auto" markerWidth="16.23606797749979" markerHeight="10.550836550532098" viewBox="-1.0 -1.3763819204711736 16.23606797749979 10.550836550532098" refX="-1.0" refY="3.8990363547948754"><path id="ProcessOnPath1141" d="M12.0 3.8990363547948754L0.0 7.798072709589751V0.0Z" stroke="#323232" stroke-width="2.0" fill="#323232" transform="matrix(1.0,0.0,0.0,1.0,0.0,0.0)"/></marker><marker id="ProcessOnMarker1144" markerUnits="userSpaceOnUse" orient="auto" markerWidth="16.23606797749979" markerHeight="10.550836550532098" viewBox="-1.0 -1.3763819204711736 16.23606797749979 10.550836550532098" refX="-1.0" refY="3.8990363547948754"><path id="ProcessOnPath1145" d="M12.0 3.8990363547948754L0.0 7.798072709589751V0.0Z" stroke="#323232" stroke-width="2.0" fill="#323232" transform="matrix(1.0,0.0,0.0,1.0,0.0,0.0)"/></marker><marker id="ProcessOnMarker1148" markerUnits="userSpaceOnUse" orient="auto" markerWidth="16.23606797749979" markerHeight="10.550836550532098" viewBox="-1.0 -1.3763819204711736 16.23606797749979 10.550836550532098" refX="-1.0" refY="3.8990363547948754"><path id="ProcessOnPath1149" d="M12.0 3.8990363547948754L0.0 7.798072709589751V0.0Z" stroke="#323232" stroke-width="2.0" fill="#323232" transform="matrix(1.0,0.0,0.0,1.0,0.0,0.0)"/></marker><marker id="ProcessOnMarker1152" markerUnits="userSpaceOnUse" orient="auto" markerWidth="16.23606797749979" markerHeight="10.550836550532098" viewBox="-1.0 -1.3763819204711736 16.23606797749979 10.550836550532098" refX="-1.0" refY="3.8990363547948754"><path id="ProcessOnPath1153" d="M12.0 3.8990363547948754L0.0 7.798072709589751V0.0Z" stroke="#323232" stroke-width="2.0" fill="#323232" transform="matrix(1.0,0.0,0.0,1.0,0.0,0.0)"/></marker><marker id="ProcessOnMarker1156" markerUnits="userSpaceOnUse" orient="auto" markerWidth="16.23606797749979" markerHeight="10.550836550532098" viewBox="-1.0 -1.3763819204711736 16.23606797749979 10.550836550532098" refX="-1.0" refY="3.8990363547948754"><path id="ProcessOnPath1157" d="M12.0 3.8990363547948754L0.0 7.798072709589751V0.0Z" stroke="#323232" stroke-width="2.0" fill="#323232" transform="matrix(1.0,0.0,0.0,1.0,0.0,0.0)"/></marker><marker id="ProcessOnMarker1164" markerUnits="userSpaceOnUse" orient="auto" markerWidth="16.23606797749979" markerHeight="10.550836550532098" viewBox="-1.0 -1.3763819204711736 16.23606797749979 10.550836550532098" refX="-1.0" refY="3.8990363547948754"><path id="ProcessOnPath1165" d="M12.0 3.8990363547948754L0.0 7.798072709589751V0.0Z" stroke="#323232" stroke-width="2.0" fill="#323232" transform="matrix(1.0,0.0,0.0,1.0,0.0,0.0)"/></marker><marker id="ProcessOnMarker1168" markerUnits="userSpaceOnUse" orient="auto" markerWidth="16.23606797749979" markerHeight="10.550836550532098" viewBox="-1.0 -1.3763819204711736 16.23606797749979 10.550836550532098" refX="-1.0" refY="3.8990363547948754"><path id="ProcessOnPath1169" d="M12.0 3.8990363547948754L0.0 7.798072709589751V0.0Z" stroke="#323232" stroke-width="2.0" fill="#323232" transform="matrix(1.0,0.0,0.0,1.0,0.0,0.0)"/></marker><marker id="ProcessOnMarker1172" markerUnits="userSpaceOnUse" orient="auto" markerWidth="16.23606797749979" markerHeight="10.550836550532098" viewBox="-1.0 -1.3763819204711736 16.23606797749979 10.550836550532098" refX="-1.0" refY="3.8990363547948754"><path id="ProcessOnPath1173" d="M12.0 3.8990363547948754L0.0 7.798072709589751V0.0Z" stroke="#323232" stroke-width="2.0" fill="#323232" transform="matrix(1.0,0.0,0.0,1.0,0.0,0.0)"/></marker><marker id="ProcessOnMarker1180" markerUnits="userSpaceOnUse" orient="auto" markerWidth="16.23606797749979" markerHeight="10.550836550532098" viewBox="-1.0 -1.3763819204711736 16.23606797749979 10.550836550532098" refX="-1.0" refY="3.8990363547948754"><path id="ProcessOnPath1181" d="M12.0 3.8990363547948754L0.0 7.798072709589751V0.0Z" stroke="#323232" stroke-width="2.0" fill="#323232" transform="matrix(1.0,0.0,0.0,1.0,0.0,0.0)"/></marker><marker id="ProcessOnMarker1184" markerUnits="userSpaceOnUse" orient="auto" markerWidth="16.23606797749979" markerHeight="10.550836550532098" viewBox="-1.0 -1.3763819204711736 16.23606797749979 10.550836550532098" refX="-1.0" refY="3.8990363547948754"><path id="ProcessOnPath1185" d="M12.0 3.8990363547948754L0.0 7.798072709589751V0.0Z" stroke="#323232" stroke-width="2.0" fill="#323232" transform="matrix(1.0,0.0,0.0,1.0,0.0,0.0)"/></marker><marker id="ProcessOnMarker1188" markerUnits="userSpaceOnUse" orient="auto" markerWidth="16.23606797749979" markerHeight="10.550836550532098" viewBox="-1.0 -1.3763819204711736 16.23606797749979 10.550836550532098" refX="-1.0" refY="3.8990363547948754"><path id="ProcessOnPath1189" d="M12.0 3.8990363547948754L0.0 7.798072709589751V0.0Z" stroke="#323232" stroke-width="2.0" fill="#323232" transform="matrix(1.0,0.0,0.0,1.0,0.0,0.0)"/></marker></defs><g id="ProcessOnG1002"><path id="ProcessOnPath1003" d="M-29.600006103515625 -26.399993896484375H1139.5999908447266V905.5999984741211H-29.600006103515625V-26.399993896484375Z" fill="#ffffff"/><g id="ProcessOnG1004"><g id="ProcessOnG1005" transform="matrix(1.0,0.0,0.0,1.0,142.0,370.39999771118164)" opacity="1.0"><path id="ProcessOnPath1006" d="M0.0 25.100000381469727C0.0 -8.366666793823242 66.0 -8.366666793823242 66.0 25.100000381469727C66.0 58.566667556762695 0.0 58.566667556762695 0.0 25.100000381469727Z" stroke="#323232" stroke-width="2.0" stroke-dasharray="none" opacity="1.0" fill="#ffffff"/><g id="ProcessOnG1007" transform="matrix(1.0,0.0,0.0,1.0,10.0,16.975000381469727)"><text id="ProcessOnText1008" fill="#000000" font-size="13" x="22.0" y="13.325" font-family="微软雅黑" font-weight="normal" font-style="normal" text-decoration="none" family="微软雅黑" text-anchor="middle" size="13">地图</text></g></g><g id="ProcessOnG1009" transform="matrix(1.0,0.0,0.0,1.0,131.0,218.39999771118164)" opacity="1.0"><path id="ProcessOnPath1010" d="M0.0 24.5C0.0 -8.166666666666666 89.0 -8.166666666666666 89.0 24.5C89.0 57.166666666666664 0.0 57.166666666666664 0.0 24.5Z" stroke="#323232" stroke-width="2.0" stroke-dasharray="none" opacity="1.0" fill="#ffffff"/><g id="ProcessOnG1011" transform="matrix(1.0,0.0,0.0,1.0,10.0,16.375)"><text id="ProcessOnText1012" fill="#000000" font-size="13" x="33.5" y="13.325" font-family="微软雅黑" font-weight="normal" font-style="normal" text-decoration="none" family="微软雅黑" text-anchor="middle" size="13">GPS / IMU</text></g></g><g id="ProcessOnG1013" transform="matrix(1.0,0.0,0.0,1.0,134.0,591.4999980926514)" opacity="1.0"><path id="ProcessOnPath1014" d="M0.0 25.100000381469727C0.0 -8.366666793823242 83.0 -8.366666793823242 83.0 25.100000381469727C83.0 58.566667556762695 0.0 58.566667556762695 0.0 25.100000381469727Z" stroke="#323232" stroke-width="2.0" stroke-dasharray="none" opacity="1.0" fill="#ffffff"/><g id="ProcessOnG1015" transform="matrix(1.0,0.0,0.0,1.0,10.0,16.975000381469727)"><text id="ProcessOnText1016" fill="#000000" font-size="13" x="30.5" y="13.325" font-family="微软雅黑" font-weight="normal" font-style="normal" text-decoration="none" family="微软雅黑" text-anchor="middle" size="13">激光雷达</text></g></g><g id="ProcessOnG1017" transform="matrix(1.0,0.0,0.0,1.0,762.0,153.39999771118164)" opacity="1.0"><path id="ProcessOnPath1018" d="M0.0 0.0L100.0 0.0L100.0 70.0L0.0 70.0Z" stroke="#323232" stroke-width="2.0" stroke-dasharray="none" opacity="1.0" fill="#ffffff"/><g id="ProcessOnG1019" transform="matrix(1.0,0.0,0.0,1.0,10.0,26.875)"><text id="ProcessOnText1020" fill="#000000" font-size="13" x="39.0" y="13.325" font-family="微软雅黑" font-weight="normal" font-style="normal" text-decoration="none" family="微软雅黑" text-anchor="middle" size="13">定位</text></g></g><g id="ProcessOnG1021" transform="matrix(1.0,0.0,0.0,1.0,762.0,376.89999771118164)" opacity="1.0"><path id="ProcessOnPath1022" d="M0.0 0.0L100.0 0.0L100.0 70.0L0.0 70.0Z" stroke="#323232" stroke-width="2.0" stroke-dasharray="none" opacity="1.0" fill="#ffffff"/><g id="ProcessOnG1023" transform="matrix(1.0,0.0,0.0,1.0,10.0,18.75)"><text id="ProcessOnText1024" fill="#000000" font-size="13" x="39.0" y="13.325" font-family="微软雅黑" font-weight="normal" font-style="normal" text-decoration="none" family="微软雅黑" text-anchor="middle" size="13">全局规划</text><text id="ProcessOnText1025" fill="#000000" font-size="13" x="39.0" y="29.575" font-family="微软雅黑" font-weight="normal" font-style="normal" text-decoration="none" family="微软雅黑" text-anchor="middle" size="13">（路由）</text></g></g><g id="ProcessOnG1026" transform="matrix(1.0,0.0,0.0,1.0,762.0,596.3999977111816)" opacity="1.0"><path id="ProcessOnPath1027" d="M0.0 0.0L100.0 0.0L100.0 70.0L0.0 70.0Z" stroke="#323232" stroke-width="2.0" stroke-dasharray="none" opacity="1.0" fill="#ffffff"/><g id="ProcessOnG1028" transform="matrix(1.0,0.0,0.0,1.0,10.0,26.875)"><text id="ProcessOnText1029" fill="#000000" font-size="13" x="39.0" y="13.325" font-family="微软雅黑" font-weight="normal" font-style="normal" text-decoration="none" family="微软雅黑" text-anchor="middle" size="13">局部规划</text></g></g><g id="ProcessOnG1030" transform="matrix(1.0,0.0,0.0,1.0,762.0,733.3999977111816)" opacity="1.0"><path id="ProcessOnPath1031" d="M0.0 0.0L100.0 0.0L100.0 70.0L0.0 70.0Z" stroke="#323232" stroke-width="2.0" stroke-dasharray="none" opacity="1.0" fill="#ffffff"/><g id="ProcessOnG1032" transform="matrix(1.0,0.0,0.0,1.0,10.0,26.875)"><text id="ProcessOnText1033" fill="#000000" font-size="13" x="39.0" y="13.325" font-family="微软雅黑" font-weight="normal" font-style="normal" text-decoration="none" family="微软雅黑" text-anchor="middle" size="13">控制器</text></g></g><g id="ProcessOnG1034" transform="matrix(1.0,0.0,0.0,1.0,292.59999084472656,653.5999984741211)" opacity="1.0"><path id="ProcessOnPath1035" d="M0.0 0.0L100.0 0.0L100.0 70.0L0.0 70.0Z" stroke="#323232" stroke-width="2.0" stroke-dasharray="none" opacity="1.0" fill="#ffffff"/><g id="ProcessOnG1036" transform="matrix(1.0,0.0,0.0,1.0,10.0,26.875)"><text id="ProcessOnText1037" fill="#000000" font-size="13" x="39.0" y="13.325" font-family="微软雅黑" font-weight="normal" font-style="normal" text-decoration="none" family="微软雅黑" text-anchor="middle" size="13">障碍物检测</text></g></g><g id="ProcessOnG1038" transform="matrix(1.0,0.0,0.0,1.0,292.59999084472656,242.39999771118164)" opacity="1.0"><path id="ProcessOnPath1039" d="M0.0 0.0L100.0 0.0L100.0 70.0L0.0 70.0Z" stroke="#323232" stroke-width="2.0" stroke-dasharray="none" opacity="1.0" fill="#ffffff"/><g id="ProcessOnG1040" transform="matrix(1.0,0.0,0.0,1.0,10.0,26.875)"><text id="ProcessOnText1041" fill="#000000" font-size="13" x="39.0" y="13.325" font-family="微软雅黑" font-weight="normal" font-style="normal" text-decoration="none" family="微软雅黑" text-anchor="middle" size="13">地图服务器</text></g></g><g id="ProcessOnG1042" transform="matrix(1.0,0.0,0.0,1.0,492.0,223.39999771118164)" opacity="1.0"><path id="ProcessOnPath1043" d="M0.0 23.5C0.0 -7.833333333333333 119.59999084472656 -7.833333333333333 119.59999084472656 23.5C119.59999084472656 54.833333333333336 0.0 54.833333333333336 0.0 23.5Z" stroke="#323232" stroke-width="2.0" stroke-dasharray="none" opacity="1.0" fill="#ffffff"/><g id="ProcessOnG1044" transform="matrix(1.0,0.0,0.0,1.0,10.0,15.375)"><text id="ProcessOnText1045" fill="#000000" font-size="13" x="48.79999542236328" y="13.325" font-family="微软雅黑" font-weight="normal" font-style="normal" text-decoration="none" family="微软雅黑" text-anchor="middle" size="13">/map/grid_map</text></g></g><g id="ProcessOnG1046" transform="matrix(1.0,0.0,0.0,1.0,485.0,289.39999771118164)" opacity="1.0"><path id="ProcessOnPath1047" d="M0.0 22.0C0.0 -7.333333333333333 133.59999084472656 -7.333333333333333 133.59999084472656 22.0C133.59999084472656 51.333333333333336 0.0 51.333333333333336 0.0 22.0Z" stroke="#323232" stroke-width="2.0" stroke-dasharray="none" opacity="1.0" fill="#ffffff"/><g id="ProcessOnG1048" transform="matrix(1.0,0.0,0.0,1.0,10.0,13.875)"><text id="ProcessOnText1049" fill="#000000" font-size="13" x="55.79999542236328" y="13.325" font-family="微软雅黑" font-weight="normal" font-style="normal" text-decoration="none" family="微软雅黑" text-anchor="middle" size="13">/map/route_map</text></g></g><g id="ProcessOnG1050"><path id="ProcessOnPath1051" d="M392.59999084472656 277.39999771118164C434.1896276694327 277.39999771118164 450.41036317529387 246.89999771118164 476.7639320225002 246.89999771118164" stroke="#323232" stroke-width="2.0" stroke-dasharray="none" fill="none" marker-end="url(#ProcessOnMarker1052)"/></g><g id="ProcessOnG1054"><path id="ProcessOnPath1055" d="M392.59999084472656 277.39999771118164C431.9827519300433 277.39999771118164 445.61723891468324 311.39999771118164 469.7639320225002 311.39999771118164" stroke="#323232" stroke-width="2.0" stroke-dasharray="none" fill="none" marker-end="url(#ProcessOnMarker1056)"/></g><g id="ProcessOnG1058"><path id="ProcessOnPath1059" d="M611.5999908447266 246.89999771118164C676.1506379415994 246.89999771118164 697.4493529031272 188.39999771118164 746.7639320225002 188.39999771118164" stroke="#323232" stroke-width="2.0" stroke-dasharray="none" fill="none" marker-end="url(#ProcessOnMarker1060)"/></g><g id="ProcessOnG1062"><path id="ProcessOnPath1063" d="M618.5999908447266 311.39999771118164C688.6443340861133 311.3999977111816 691.9556567586133 411.89999771118164 746.7639320225002 411.89999771118164" stroke="#323232" stroke-width="2.0" stroke-dasharray="none" fill="none" marker-end="url(#ProcessOnMarker1064)"/></g><g id="ProcessOnG1066" transform="matrix(1.0,0.0,0.0,1.0,731.0,286.89999771118164)" opacity="1.0"><path id="ProcessOnPath1067" d="M0.0 20.75C0.0 -6.916666666666667 161.59999084472656 -6.916666666666667 161.59999084472656 20.75C161.59999084472656 48.416666666666664 0.0 48.416666666666664 0.0 20.75Z" stroke="#323232" stroke-width="2.0" stroke-dasharray="none" opacity="1.0" fill="#ffffff"/><g id="ProcessOnG1068" transform="matrix(1.0,0.0,0.0,1.0,10.0,12.625)"><text id="ProcessOnText1069" fill="#000000" font-size="13" x="69.79999542236328" y="13.325" font-family="微软雅黑" font-weight="normal" font-style="normal" text-decoration="none" family="微软雅黑" text-anchor="middle" size="13">/localization/location</text></g></g><g id="ProcessOnG1070" transform="matrix(1.0,0.0,0.0,1.0,922.7999954223633,286.89999771118164)" opacity="1.0"><path id="ProcessOnPath1071" d="M0.0 20.75C0.0 -6.916666666666667 196.79999542236328 -6.916666666666667 196.79999542236328 20.75C196.79999542236328 48.416666666666664 0.0 48.416666666666664 0.0 20.75Z" stroke="#323232" stroke-width="2.0" stroke-dasharray="none" opacity="1.0" fill="#ffffff"/><g id="ProcessOnG1072" transform="matrix(1.0,0.0,0.0,1.0,10.0,12.625)"><text id="ProcessOnText1073" fill="#000000" font-size="13" x="87.39999771118164" y="13.325" font-family="微软雅黑" font-weight="normal" font-style="normal" text-decoration="none" family="微软雅黑" text-anchor="middle" size="13">/localization/map_location</text></g></g><g id="ProcessOnG1074"><path id="ProcessOnPath1075" d="M812.0 223.39999771118164C812.0 248.80012370088832 811.7999954223633 261.49987172147496 811.7999954223633 271.66392973368187" stroke="#323232" stroke-width="2.0" stroke-dasharray="none" fill="none" marker-end="url(#ProcessOnMarker1076)"/></g><g id="ProcessOnG1078"><path id="ProcessOnPath1079" d="M812.0 223.39999771118164C812.0 310.84999451125043 1021.1999931335449 199.45000091111285 1021.1999931335449 271.66392973368187" stroke="#323232" stroke-width="2.0" stroke-dasharray="none" fill="none" marker-end="url(#ProcessOnMarker1080)"/></g><g id="ProcessOnG1082" transform="matrix(1.0,0.0,0.0,1.0,971.1999931335449,163.2999973297119)" opacity="1.0"><path id="ProcessOnPath1083" d="M0.0 25.100000381469727C0.0 -8.366666793823242 66.0 -8.366666793823242 66.0 25.100000381469727C66.0 58.566667556762695 0.0 58.566667556762695 0.0 25.100000381469727Z" stroke="#323232" stroke-width="2.0" stroke-dasharray="none" opacity="1.0" fill="#ffffff"/><g id="ProcessOnG1084" transform="matrix(1.0,0.0,0.0,1.0,10.0,16.975000381469727)"><text id="ProcessOnText1085" fill="#000000" font-size="13" x="22.0" y="13.325" font-family="微软雅黑" font-weight="normal" font-style="normal" text-decoration="none" family="微软雅黑" text-anchor="middle" size="13">TF</text></g></g><g id="ProcessOnG1086"><path id="ProcessOnPath1087" d="M862.0 188.39999771118164C905.6799972534179 188.39999771118164 927.519995880127 188.39999771118164 955.9639251560451 188.39999771118164" stroke="#323232" stroke-width="2.0" stroke-dasharray="none" fill="none" marker-end="url(#ProcessOnMarker1088)"/></g><g id="ProcessOnG1090"><path id="ProcessOnPath1091" d="M811.7999954223633 328.39999771118164C811.7999954223633 347.80016266648477 812.0 357.4998327558785 812.0 361.66392973368187" stroke="#323232" stroke-width="2.0" stroke-dasharray="none" fill="none" marker-end="url(#ProcessOnMarker1092)"/></g><g id="ProcessOnG1094" transform="matrix(1.0,0.0,0.0,1.0,752.0,498.89999771118164)" opacity="1.0"><path id="ProcessOnPath1095" d="M0.0 23.5C0.0 -7.833333333333333 119.59999084472656 -7.833333333333333 119.59999084472656 23.5C119.59999084472656 54.833333333333336 0.0 54.833333333333336 0.0 23.5Z" stroke="#323232" stroke-width="2.0" stroke-dasharray="none" opacity="1.0" fill="#ffffff"/><g id="ProcessOnG1096" transform="matrix(1.0,0.0,0.0,1.0,10.0,15.375)"><text id="ProcessOnText1097" fill="#000000" font-size="13" x="48.79999542236328" y="13.325" font-family="微软雅黑" font-weight="normal" font-style="normal" text-decoration="none" family="微软雅黑" text-anchor="middle" size="13">/route/path</text></g></g><g id="ProcessOnG1098" transform="matrix(1.0,0.0,0.0,1.0,492.0,446.89999771118164)" opacity="1.0"><path id="ProcessOnPath1099" d="M0.0 23.5C0.0 -7.833333333333333 119.59999084472656 -7.833333333333333 119.59999084472656 23.5C119.59999084472656 54.833333333333336 0.0 54.833333333333336 0.0 23.5Z" stroke="#323232" stroke-width="2.0" stroke-dasharray="none" opacity="1.0" fill="#ffffff"/><g id="ProcessOnG1100" transform="matrix(1.0,0.0,0.0,1.0,10.0,15.375)"><text id="ProcessOnText1101" fill="#000000" font-size="13" x="48.79999542236328" y="13.325" font-family="微软雅黑" font-weight="normal" font-style="normal" text-decoration="none" family="微软雅黑" text-anchor="middle" size="13">/route/goal</text></g></g><g id="ProcessOnG1102"><path id="ProcessOnPath1103" d="M611.5999908447266 470.39999771118164C676.1506379415994 470.39999771118164 697.4493529031272 411.89999771118164 746.7639320225002 411.89999771118164" stroke="#323232" stroke-width="2.0" stroke-dasharray="none" fill="none" marker-end="url(#ProcessOnMarker1104)"/></g><g id="ProcessOnG1106"><path id="ProcessOnPath1107" d="M208.0 395.49999809265137C266.10992141248306 395.49999809265137 234.49006943224353 277.39999771118164 277.3639228672268 277.39999771118164" stroke="#323232" stroke-width="2.0" stroke-dasharray="none" fill="none" marker-end="url(#ProcessOnMarker1108)"/></g><g id="ProcessOnG1110"><path id="ProcessOnPath1111" d="M220.0 242.89999771118164C308.1999969482422 199.5999984741211 744.1999969482422 -6.399993896484375 806.0491046860839 139.37414257226746" stroke="#323232" stroke-width="2.0" stroke-dasharray="none" fill="none" marker-end="url(#ProcessOnMarker1112)"/></g><g id="ProcessOnG1114"><path id="ProcessOnPath1115" d="M811.7999954223633 545.8999977111816C811.7999954223633 566.1001561336537 812.0 576.1998392887095 812.0 581.1639297336818" stroke="#323232" stroke-width="2.0" stroke-dasharray="none" fill="none" marker-end="url(#ProcessOnMarker1116)"/></g><g id="ProcessOnG1118"><path id="ProcessOnPath1119" d="M812.0 666.3999977111816C812.0 693.1999977111816 812.0 706.5999977111817 812.0 718.1639297336818" stroke="#323232" stroke-width="2.0" stroke-dasharray="none" fill="none" marker-end="url(#ProcessOnMarker1120)"/></g><g id="ProcessOnG1122"><path id="ProcessOnPath1123" d="M618.5999908447266 311.39999771118164C708.1999969482422 314.5999984741211 585.1999969482422 628.5999984741211 746.7658423705958 631.1587328412534" stroke="#323232" stroke-width="2.0" stroke-dasharray="none" fill="none" marker-end="url(#ProcessOnMarker1124)"/></g><g id="ProcessOnG1126"><path id="ProcessOnPath1127" d="M611.5999908447266 246.89999771118164C776.7473978501804 246.8999977111816 596.8525929945462 631.3999977111816 746.7639320225002 631.3999977111816" stroke="#323232" stroke-width="2.0" stroke-dasharray="none" fill="none" marker-end="url(#ProcessOnMarker1128)"/></g><g id="ProcessOnG1130" transform="matrix(1.0,0.0,0.0,1.0,444.0,702.0999984741211)" opacity="1.0"><path id="ProcessOnPath1131" d="M0.0 20.75C0.0 -6.916666666666667 216.79999542236328 -6.916666666666667 216.79999542236328 20.75C216.79999542236328 48.416666666666664 0.0 48.416666666666664 0.0 20.75Z" stroke="#323232" stroke-width="2.0" stroke-dasharray="none" opacity="1.0" fill="#ffffff"/><g id="ProcessOnG1132" transform="matrix(1.0,0.0,0.0,1.0,10.0,12.625)"><text id="ProcessOnText1133" fill="#000000" font-size="13" x="97.39999771118164" y="13.325" font-family="微软雅黑" font-weight="normal" font-style="normal" text-decoration="none" family="微软雅黑" text-anchor="middle" size="13">/detection/static_obstacle_grid</text></g></g><g id="ProcessOnG1134" transform="matrix(1.0,0.0,0.0,1.0,444.0,641.6999988555908)" opacity="1.0"><path id="ProcessOnPath1135" d="M0.0 20.75C0.0 -6.916666666666667 216.79999542236328 -6.916666666666667 216.79999542236328 20.75C216.79999542236328 48.416666666666664 0.0 48.416666666666664 0.0 20.75Z" stroke="#323232" stroke-width="2.0" stroke-dasharray="none" opacity="1.0" fill="#ffffff"/><g id="ProcessOnG1136" transform="matrix(1.0,0.0,0.0,1.0,10.0,12.625)"><text id="ProcessOnText1137" fill="#000000" font-size="13" x="97.39999771118164" y="13.325" font-family="微软雅黑" font-weight="normal" font-style="normal" text-decoration="none" family="微软雅黑" text-anchor="middle" size="13">/detection/dynamic_obstacle</text></g></g><g id="ProcessOnG1138"><path id="ProcessOnPath1139" d="M660.7999954223633 662.4499988555908C703.1424913291121 662.4499988555908 719.6575040932512 631.3999977111816 746.7639320225002 631.3999977111816" stroke="#323232" stroke-width="2.0" stroke-dasharray="none" fill="none" marker-end="url(#ProcessOnMarker1140)"/></g><g id="ProcessOnG1142"><path id="ProcessOnPath1143" d="M660.7999954223633 722.8499984741211C715.3593848119895 722.8499984741211 707.4406106103738 631.3999977111816 746.7639320225002 631.3999977111816" stroke="#323232" stroke-width="2.0" stroke-dasharray="none" fill="none" marker-end="url(#ProcessOnMarker1144)"/></g><g id="ProcessOnG1146"><path id="ProcessOnPath1147" d="M392.59999084472656 688.5999984741211C415.6678331234013 688.5999984741211 420.93215772132527 662.4499988555908 428.7639320225002 662.4499988555908" stroke="#323232" stroke-width="2.0" stroke-dasharray="none" fill="none" marker-end="url(#ProcessOnMarker1148)"/></g><g id="ProcessOnG1150"><path id="ProcessOnPath1151" d="M392.59999084472656 688.5999984741211C417.3063412548124 688.5999984741211 419.29364958991414 722.8499984741211 428.7639320225002 722.8499984741211" stroke="#323232" stroke-width="2.0" stroke-dasharray="none" fill="none" marker-end="url(#ProcessOnMarker1152)"/></g><g id="ProcessOnG1154"><path id="ProcessOnPath1155" d="M217.0 616.5999984741211C258.75999734812774 616.5999984741211 250.8399934965988 688.5999984741211 277.3639228672268 688.5999984741211" stroke="#323232" stroke-width="2.0" stroke-dasharray="none" fill="none" marker-end="url(#ProcessOnMarker1156)"/></g><g id="ProcessOnG1158" transform="matrix(1.0,0.0,0.0,1.0,128.0,723.5999984741211)" opacity="1.0"><path id="ProcessOnPath1159" d="M0.0 26.600000858306885C0.0 -8.866666952768961 93.59999084472656 -8.866666952768961 93.59999084472656 26.600000858306885C93.59999084472656 62.06666866938273 0.0 62.06666866938273 0.0 26.600000858306885Z" stroke="#323232" stroke-width="2.0" stroke-dasharray="none" opacity="1.0" fill="#ffffff"/><g id="ProcessOnG1160" transform="matrix(1.0,0.0,0.0,1.0,10.0,18.475000858306885)"><text id="ProcessOnText1161" fill="#000000" font-size="13" x="35.79999542236328" y="13.325" font-family="微软雅黑" font-weight="normal" font-style="normal" text-decoration="none" family="微软雅黑" text-anchor="middle" size="13">毫米波雷达</text></g></g><g id="ProcessOnG1162"><path id="ProcessOnPath1163" d="M221.59999084472656 750.199999332428C259.19905488785065 750.199999332428 255.00092680160247 688.5999984741211 277.3639228672268 688.5999984741211" stroke="#323232" stroke-width="2.0" stroke-dasharray="none" fill="none" marker-end="url(#ProcessOnMarker1164)"/></g><g id="ProcessOnG1166"><path id="ProcessOnPath1167" d="M134.0 616.5999984741211C-9.600006103515625 181.0 467.3999938964844 173.0 746.7847064834704 187.60462948146346" stroke="#323232" stroke-width="2.0" stroke-dasharray="none" fill="none" marker-end="url(#ProcessOnMarker1168)"/></g><g id="ProcessOnG1170"><path id="ProcessOnPath1171" d="M812.0 446.89999771118164C812.0 467.7001515638091 811.7999954223633 478.0998438585542 811.7999954223633 483.66392973368187" stroke="#323232" stroke-width="2.0" stroke-dasharray="none" fill="none" marker-end="url(#ProcessOnMarker1172)"/></g><g id="ProcessOnG1174" transform="matrix(1.0,0.0,0.0,1.0,502.0,815.5999984741211)" opacity="1.0"><path id="ProcessOnPath1175" d="M0.0 0.0L100.0 0.0L100.0 70.0L0.0 70.0Z" stroke="#323232" stroke-width="2.0" stroke-dasharray="none" opacity="1.0" fill="#ffffff"/><g id="ProcessOnG1176" transform="matrix(1.0,0.0,0.0,1.0,10.0,26.875)"><text id="ProcessOnText1177" fill="#000000" font-size="13" x="39.0" y="13.325" font-family="微软雅黑" font-weight="normal" font-style="normal" text-decoration="none" family="微软雅黑" text-anchor="middle" size="13">远程遥控</text></g></g><g id="ProcessOnG1178"><path id="ProcessOnPath1179" d="M602.0 850.5999984741211C673.952028602871 850.5999984741211 690.047971397129 768.3999977111816 746.7639320225002 768.3999977111816" stroke="#323232" stroke-width="2.0" stroke-dasharray="none" fill="none" marker-end="url(#ProcessOnMarker1180)"/></g><g id="ProcessOnG1182"><path id="ProcessOnPath1183" d="M811.7999954223633 328.39999771118164C957.1999969482422 387.39999771118164 984.8521325559111 631.3999977111816 877.2360679774998 631.3999977111816" stroke="#323232" stroke-width="2.0" stroke-dasharray="none" fill="none" marker-end="url(#ProcessOnMarker1184)"/></g><g id="ProcessOnG1186"><path id="ProcessOnPath1187" d="M811.7999954223633 328.39999771118164C1015.1999969482422 424.20000076293945 1039.1417694208094 768.3999977111816 877.2360679774998 768.3999977111816" stroke="#323232" stroke-width="2.0" stroke-dasharray="none" fill="none" marker-end="url(#ProcessOnMarker1188)"/></g></g></g></svg>