<svg xmlns="http://www.w3.org/2000/svg" xmlns:xlink="http://www.w3.org/1999/xlink" id="processonSvg1000" viewBox="240.09999084472656 113.5999984741211 532.0 500.4000015258789" width="532.0" height="500.4000015258789"><defs id="ProcessOnDefs1001"><marker id="ProcessOnMarker1031" markerUnits="userSpaceOnUse" orient="auto" markerWidth="16.23606797749979" markerHeight="10.550836550532098" viewBox="-1.0 -1.3763819204711736 16.23606797749979 10.550836550532098" refX="-1.0" refY="3.8990363547948754"><path id="ProcessOnPath1032" d="M12.0 3.8990363547948754L0.0 7.798072709589751V0.0Z" stroke="#323232" stroke-width="2.0" fill="#323232" transform="matrix(1.0,0.0,0.0,1.0,0.0,0.0)"/></marker><marker id="ProcessOnMarker1038" markerUnits="userSpaceOnUse" orient="auto" markerWidth="16.23606797749979" markerHeight="10.550836550532098" viewBox="-1.0 -1.3763819204711736 16.23606797749979 10.550836550532098" refX="-1.0" refY="3.8990363547948754"><path id="ProcessOnPath1039" d="M12.0 3.8990363547948754L0.0 7.798072709589751V0.0Z" stroke="#323232" stroke-width="2.0" fill="#323232" transform="matrix(1.0,0.0,0.0,1.0,0.0,0.0)"/></marker><marker id="ProcessOnMarker1045" markerUnits="userSpaceOnUse" orient="auto" markerWidth="16.23606797749979" markerHeight="10.550836550532098" viewBox="-1.0 -1.3763819204711736 16.23606797749979 10.550836550532098" refX="-1.0" refY="3.8990363547948754"><path id="ProcessOnPath1046" d="M12.0 3.8990363547948754L0.0 7.798072709589751V0.0Z" stroke="#323232" stroke-width="2.0" fill="#323232" transform="matrix(1.0,0.0,0.0,1.0,0.0,0.0)"/></marker><marker id="ProcessOnMarker1052" markerUnits="userSpaceOnUse" orient="auto" markerWidth="16.23606797749979" markerHeight="10.550836550532098" viewBox="-1.0 -1.3763819204711736 16.23606797749979 10.550836550532098" refX="-1.0" refY="3.8990363547948754"><path id="ProcessOnPath1053" d="M12.0 3.8990363547948754L0.0 7.798072709589751V0.0Z" stroke="#323232" stroke-width="2.0" fill="#323232" transform="matrix(1.0,0.0,0.0,1.0,0.0,0.0)"/></marker><marker id="ProcessOnMarker1059" markerUnits="userSpaceOnUse" orient="auto" markerWidth="16.23606797749979" markerHeight="10.550836550532098" viewBox="-1.0 -1.3763819204711736 16.23606797749979 10.550836550532098" refX="-1.0" refY="3.8990363547948754"><path id="ProcessOnPath1060" d="M12.0 3.8990363547948754L0.0 7.798072709589751V0.0Z" stroke="#323232" stroke-width="2.0" fill="#323232" transform="matrix(1.0,0.0,0.0,1.0,0.0,0.0)"/></marker></defs><g id="ProcessOnG1002"><path id="ProcessOnPath1003" d="M240.09999084472656 113.5999984741211H772.0999908447266V614.0H240.09999084472656V113.5999984741211Z" fill="none"/><g id="ProcessOnG1004"><g id="ProcessOnG1005" transform="matrix(1.0,0.0,0.0,1.0,465.59999084472656,133.5999984741211)" opacity="1.0"><path id="ProcessOnPath1006" d="M0.0 23.0C0.0 -7.666666666666667 81.0 -7.666666666666667 81.0 23.0C81.0 53.666666666666664 0.0 53.666666666666664 0.0 23.0Z" stroke="#323232" stroke-width="2.0" stroke-dasharray="none" opacity="1.0" fill="#ffffff"/><g id="ProcessOnG1007" transform="matrix(1.0,0.0,0.0,1.0,10.0,14.875)"><text id="ProcessOnText1008" fill="#000000" font-size="13" x="29.5" y="13.325" font-family="微软雅黑" font-weight="normal" font-style="normal" text-decoration="none" family="微软雅黑" text-anchor="middle" size="13">map</text></g></g><g id="ProcessOnG1009" transform="matrix(1.0,0.0,0.0,1.0,441.09999084472656,268.0999984741211)" opacity="1.0"><path id="ProcessOnPath1010" d="M0.0 22.5C0.0 -7.5 130.0 -7.5 130.0 22.5C130.0 52.5 0.0 52.5 0.0 22.5Z" stroke="#323232" stroke-width="2.0" stroke-dasharray="none" opacity="1.0" fill="#ffffff"/><g id="ProcessOnG1011" transform="matrix(1.0,0.0,0.0,1.0,10.0,14.375)"><text id="ProcessOnText1012" fill="#000000" font-size="13" x="54.0" y="13.325" font-family="微软雅黑" font-weight="normal" font-style="normal" text-decoration="none" family="微软雅黑" text-anchor="middle" size="13">vehicle_footprint</text></g></g><g id="ProcessOnG1013" transform="matrix(1.0,0.0,0.0,1.0,465.59999084472656,401.5999984741211)" opacity="1.0"><path id="ProcessOnPath1014" d="M0.0 23.0C0.0 -7.666666666666667 81.0 -7.666666666666667 81.0 23.0C81.0 53.666666666666664 0.0 53.666666666666664 0.0 23.0Z" stroke="#323232" stroke-width="2.0" stroke-dasharray="none" opacity="1.0" fill="#ffffff"/><g id="ProcessOnG1015" transform="matrix(1.0,0.0,0.0,1.0,10.0,14.875)"><text id="ProcessOnText1016" fill="#000000" font-size="13" x="29.5" y="13.325" font-family="微软雅黑" font-weight="normal" font-style="normal" text-decoration="none" family="微软雅黑" text-anchor="middle" size="13">vehicle</text></g></g><g id="ProcessOnG1017" transform="matrix(1.0,0.0,0.0,1.0,260.09999084472656,548.0)" opacity="1.0"><path id="ProcessOnPath1018" d="M0.0 23.0C0.0 -7.666666666666667 81.0 -7.666666666666667 81.0 23.0C81.0 53.666666666666664 0.0 53.666666666666664 0.0 23.0Z" stroke="#323232" stroke-width="2.0" stroke-dasharray="none" opacity="1.0" fill="#ffffff"/><g id="ProcessOnG1019" transform="matrix(1.0,0.0,0.0,1.0,10.0,14.875)"><text id="ProcessOnText1020" fill="#000000" font-size="13" x="29.5" y="13.325" font-family="微软雅黑" font-weight="normal" font-style="normal" text-decoration="none" family="微软雅黑" text-anchor="middle" size="13">lidar</text></g></g><g id="ProcessOnG1021" transform="matrix(1.0,0.0,0.0,1.0,465.59999084472656,548.0)" opacity="1.0"><path id="ProcessOnPath1022" d="M0.0 23.0C0.0 -7.666666666666667 81.0 -7.666666666666667 81.0 23.0C81.0 53.666666666666664 0.0 53.666666666666664 0.0 23.0Z" stroke="#323232" stroke-width="2.0" stroke-dasharray="none" opacity="1.0" fill="#ffffff"/><g id="ProcessOnG1023" transform="matrix(1.0,0.0,0.0,1.0,10.0,14.875)"><text id="ProcessOnText1024" fill="#000000" font-size="13" x="29.5" y="13.325" font-family="微软雅黑" font-weight="normal" font-style="normal" text-decoration="none" family="微软雅黑" text-anchor="middle" size="13">imu</text></g></g><g id="ProcessOnG1025" transform="matrix(1.0,0.0,0.0,1.0,671.0999908447266,548.0)" opacity="1.0"><path id="ProcessOnPath1026" d="M0.0 23.0C0.0 -7.666666666666667 81.0 -7.666666666666667 81.0 23.0C81.0 53.666666666666664 0.0 53.666666666666664 0.0 23.0Z" stroke="#323232" stroke-width="2.0" stroke-dasharray="none" opacity="1.0" fill="#ffffff"/><g id="ProcessOnG1027" transform="matrix(1.0,0.0,0.0,1.0,10.0,14.875)"><text id="ProcessOnText1028" fill="#000000" font-size="13" x="29.5" y="13.325" font-family="微软雅黑" font-weight="normal" font-style="normal" text-decoration="none" family="微软雅黑" text-anchor="middle" size="13">radar</text></g></g><g id="ProcessOnG1029"><path id="ProcessOnPath1030" d="M506.09999084472656 179.5999984741211C506.09999084472656 214.9999984741211 506.09999084472656 232.6999984741211 506.09999084472656 252.8639304966213" stroke="#323232" stroke-width="2.0" stroke-dasharray="none" fill="none" marker-end="url(#ProcessOnMarker1031)"/><g id="ProcessOnG1033" transform="matrix(1.0,0.0,0.0,1.0,506.09999084472656,213.82048997693363)"><path id="ProcessOnPath1034" d="M0 0H52.0V16.25H0Z" fill="#fff" transform="matrix(1.0,0.0,0.0,1.0,-26.0,0.0)"/><text id="ProcessOnText1035" fill="#000000" font-size="13" x="0.0" y="13.325" font-family="微软雅黑" font-weight="normal" font-style="normal" text-decoration="none" family="微软雅黑" text-anchor="middle" size="13">定位提供</text></g></g><g id="ProcessOnG1036"><path id="ProcessOnPath1037" d="M506.09999084472656 313.0999984741211C506.09999084472656 348.49999847412107 506.09999084472656 366.1999984741211 506.09999084472656 386.3639304966213" stroke="#323232" stroke-width="2.0" stroke-dasharray="none" fill="none" marker-end="url(#ProcessOnMarker1038)"/><g id="ProcessOnG1040" transform="matrix(1.0,0.0,0.0,1.0,506.09999084472656,347.32048997693363)"><path id="ProcessOnPath1041" d="M0 0H83.0V16.25H0Z" fill="#fff" transform="matrix(1.0,0.0,0.0,1.0,-41.5,0.0)"/><text id="ProcessOnText1042" fill="#000000" font-size="13" x="0.0" y="13.325" font-family="微软雅黑" font-weight="normal" font-style="normal" text-decoration="none" family="微软雅黑" text-anchor="middle" size="13">IMU 校正提供</text></g></g><g id="ProcessOnG1043"><path id="ProcessOnPath1044" d="M506.09999084472656 447.5999984741211C506.09999084472656 539.0858752476616 300.59999084472656 456.5141232264595 300.59999084472656 532.7639320225002" stroke="#323232" stroke-width="2.0" stroke-dasharray="none" fill="none" marker-end="url(#ProcessOnMarker1045)"/><g id="ProcessOnG1047" transform="matrix(1.0,0.0,0.0,1.0,403.34999084472656,487.7704907398731)"><path id="ProcessOnPath1048" d="M0 0H52.0V16.25H0Z" fill="#fff" transform="matrix(1.0,0.0,0.0,1.0,-26.0,0.0)"/><text id="ProcessOnText1049" fill="#000000" font-size="13" x="0.0" y="13.325" font-family="微软雅黑" font-weight="normal" font-style="normal" text-decoration="none" family="微软雅黑" text-anchor="middle" size="13">标定得到</text></g></g><g id="ProcessOnG1050"><path id="ProcessOnPath1051" d="M506.09999084472656 447.5999984741211C506.09999084472656 487.75999908447267 506.09999084472656 507.8399993896484 506.09999084472656 532.7639320225002" stroke="#323232" stroke-width="2.0" stroke-dasharray="none" fill="none" marker-end="url(#ProcessOnMarker1052)"/><g id="ProcessOnG1054" transform="matrix(1.0,0.0,0.0,1.0,506.09999084472656,487.7704907398731)"><path id="ProcessOnPath1055" d="M0 0H52.0V16.25H0Z" fill="#fff" transform="matrix(1.0,0.0,0.0,1.0,-26.0,0.0)"/><text id="ProcessOnText1056" fill="#000000" font-size="13" x="0.0" y="13.325" font-family="微软雅黑" font-weight="normal" font-style="normal" text-decoration="none" family="微软雅黑" text-anchor="middle" size="13">标定得到</text></g></g><g id="ProcessOnG1057"><path id="ProcessOnPath1058" d="M506.09999084472656 447.5999984741211C506.09999084472656 539.0858752476616 711.5999908447266 456.5141232264595 711.5999908447266 532.7639320225002" stroke="#323232" stroke-width="2.0" stroke-dasharray="none" fill="none" marker-end="url(#ProcessOnMarker1059)"/><g id="ProcessOnG1061" transform="matrix(1.0,0.0,0.0,1.0,608.8499908447266,487.7704907398731)"><path id="ProcessOnPath1062" d="M0 0H52.0V16.25H0Z" fill="#fff" transform="matrix(1.0,0.0,0.0,1.0,-26.0,0.0)"/><text id="ProcessOnText1063" fill="#000000" font-size="13" x="0.0" y="13.325" font-family="微软雅黑" font-weight="normal" font-style="normal" text-decoration="none" family="微软雅黑" text-anchor="middle" size="13">标定得到</text></g></g></g></g></svg>