<svg xmlns="http://www.w3.org/2000/svg" xmlns:xlink="http://www.w3.org/1999/xlink" id="processonSvg1000" viewBox="223.5028533935547 38.017051696777344 523.0 336.0" width="523.0" height="336.0"><defs id="ProcessOnDefs1001"/><g id="ProcessOnG1002"><path id="ProcessOnPath1003" d="M223.5028533935547 38.017051696777344H746.5028533935547V374.01705169677734H223.5028533935547V38.017051696777344Z" fill="none"/><g id="ProcessOnG1004"><g id="ProcessOnG1005" transform="matrix(1.0,0.0,0.0,1.0,406.0028533935547,58.017051696777344)" opacity="1.0"><path id="ProcessOnPath1006" d="M0.0 0.0L179.0 0.0L179.0 35.0L0.0 35.0Z" stroke="#323232" stroke-width="2.0" stroke-dasharray="none" opacity="1.0" fill="#ffffff"/><g id="ProcessOnG1007" transform="matrix(1.0,0.0,0.0,1.0,10.0,9.375)"><text id="ProcessOnText1008" fill="#000000" font-size="13" x="78.5" y="13.325" font-family="微软雅黑" font-weight="normal" font-style="normal" text-decoration="none" family="微软雅黑" text-anchor="middle" size="13">自动驾驶控制器软件</text></g></g><g id="ProcessOnG1009" transform="matrix(1.0,0.0,0.0,1.0,243.5028533935547,145.01705169677734)" opacity="1.0"><path id="ProcessOnPath1010" d="M0.0 0.0L120.0 0.0L120.0 35.0L0.0 35.0Z" stroke="#323232" stroke-width="2.0" stroke-dasharray="none" opacity="1.0" fill="#ffffff"/><g id="ProcessOnG1011" transform="matrix(1.0,0.0,0.0,1.0,10.0,9.375)"><text id="ProcessOnText1012" fill="#000000" font-size="13" x="49.0" y="13.325" font-family="微软雅黑" font-weight="normal" font-style="normal" text-decoration="none" family="微软雅黑" text-anchor="middle" size="13">输入</text></g></g><g id="ProcessOnG1013" transform="matrix(1.0,0.0,0.0,1.0,435.5028533935547,145.01705169677734)" opacity="1.0"><path id="ProcessOnPath1014" d="M0.0 0.0L120.0 0.0L120.0 35.0L0.0 35.0Z" stroke="#323232" stroke-width="2.0" stroke-dasharray="none" opacity="1.0" fill="#ffffff"/><g id="ProcessOnG1015" transform="matrix(1.0,0.0,0.0,1.0,10.0,9.375)"><text id="ProcessOnText1016" fill="#000000" font-size="13" x="49.0" y="13.325" font-family="微软雅黑" font-weight="normal" font-style="normal" text-decoration="none" family="微软雅黑" text-anchor="middle" size="13">处理</text></g></g><g id="ProcessOnG1017" transform="matrix(1.0,0.0,0.0,1.0,602.5028533935547,145.01705169677734)" opacity="1.0"><path id="ProcessOnPath1018" d="M0.0 0.0L120.0 0.0L120.0 35.0L0.0 35.0Z" stroke="#323232" stroke-width="2.0" stroke-dasharray="none" opacity="1.0" fill="#ffffff"/><g id="ProcessOnG1019" transform="matrix(1.0,0.0,0.0,1.0,10.0,9.375)"><text id="ProcessOnText1020" fill="#000000" font-size="13" x="49.0" y="13.325" font-family="微软雅黑" font-weight="normal" font-style="normal" text-decoration="none" family="微软雅黑" text-anchor="middle" size="13">输出</text></g></g><g id="ProcessOnG1021"><path id="ProcessOnPath1022" d="M495.5028533935547 93.01705169677734L495.5028533935547 119.01705169677734L495.5028533935547 119.01705169677734L495.5028533935547 145.01705169677734" stroke="#323232" stroke-width="2.0" stroke-dasharray="none" fill="none"/></g><g id="ProcessOnG1023"><path id="ProcessOnPath1024" d="M495.5028533935547 93.01705169677734L303.5028533935547 145.01705169677734" stroke="#323232" stroke-width="2.0" stroke-dasharray="none" fill="none"/></g><g id="ProcessOnG1025"><path id="ProcessOnPath1026" d="M495.5028533935547 93.01705169677734L662.5028533935547 145.01705169677734" stroke="#323232" stroke-width="2.0" stroke-dasharray="none" fill="none"/></g><g id="ProcessOnG1027" transform="matrix(1.0,0.0,0.0,1.0,243.5028533935547,228.01705169677734)" opacity="1.0"><path id="ProcessOnPath1028" d="M0.0 0.0L35.0 0.0L35.0 120.0L0.0 120.0Z" stroke="#323232" stroke-width="2.0" stroke-dasharray="none" opacity="1.0" fill="#ffffff"/><g id="ProcessOnG1029" transform="matrix(1.0,0.0,0.0,1.0,10.0,19.375)"><text id="ProcessOnText1030" fill="#000000" font-size="13" x="6.5" y="13.325" font-family="微软雅黑" font-weight="normal" font-style="normal" text-decoration="none" family="微软雅黑" text-anchor="middle" size="13">位</text><text id="ProcessOnText1031" fill="#000000" font-size="13" x="6.5" y="29.575" font-family="微软雅黑" font-weight="normal" font-style="normal" text-decoration="none" family="微软雅黑" text-anchor="middle" size="13">置</text><text id="ProcessOnText1032" fill="#000000" font-size="13" x="6.5" y="45.825" font-family="微软雅黑" font-weight="normal" font-style="normal" text-decoration="none" family="微软雅黑" text-anchor="middle" size="13">和</text><text id="ProcessOnText1033" fill="#000000" font-size="13" x="6.5" y="62.075" font-family="微软雅黑" font-weight="normal" font-style="normal" text-decoration="none" family="微软雅黑" text-anchor="middle" size="13">姿</text><text id="ProcessOnText1034" fill="#000000" font-size="13" x="6.5" y="78.325" font-family="微软雅黑" font-weight="normal" font-style="normal" text-decoration="none" family="微软雅黑" text-anchor="middle" size="13">态</text></g></g><g id="ProcessOnG1035" transform="matrix(1.0,0.0,0.0,1.0,328.5028533935547,228.01705169677734)" opacity="1.0"><path id="ProcessOnPath1036" d="M0.0 0.0L35.0 0.0L35.0 120.0L0.0 120.0Z" stroke="#323232" stroke-width="2.0" stroke-dasharray="none" opacity="1.0" fill="#ffffff"/><g id="ProcessOnG1037" transform="matrix(1.0,0.0,0.0,1.0,10.0,27.5)"><text id="ProcessOnText1038" fill="#000000" font-size="13" x="6.5" y="13.325" font-family="微软雅黑" font-weight="normal" font-style="normal" text-decoration="none" family="微软雅黑" text-anchor="middle" size="13">目</text><text id="ProcessOnText1039" fill="#000000" font-size="13" x="6.5" y="29.575" font-family="微软雅黑" font-weight="normal" font-style="normal" text-decoration="none" family="微软雅黑" text-anchor="middle" size="13">标</text><text id="ProcessOnText1040" fill="#000000" font-size="13" x="6.5" y="45.825" font-family="微软雅黑" font-weight="normal" font-style="normal" text-decoration="none" family="微软雅黑" text-anchor="middle" size="13">轨</text><text id="ProcessOnText1041" fill="#000000" font-size="13" x="6.5" y="62.075" font-family="微软雅黑" font-weight="normal" font-style="normal" text-decoration="none" family="微软雅黑" text-anchor="middle" size="13">迹</text></g></g><g id="ProcessOnG1042" transform="matrix(1.0,0.0,0.0,1.0,435.5028533935547,231.01705169677734)" opacity="1.0"><path id="ProcessOnPath1043" d="M0.0 0.0L35.0 0.0L35.0 120.0L0.0 120.0Z" stroke="#323232" stroke-width="2.0" stroke-dasharray="none" opacity="1.0" fill="#ffffff"/><g id="ProcessOnG1044" transform="matrix(1.0,0.0,0.0,1.0,10.0,19.375)"><text id="ProcessOnText1045" fill="#000000" font-size="13" x="6.5" y="13.325" font-family="微软雅黑" font-weight="normal" font-style="normal" text-decoration="none" family="微软雅黑" text-anchor="middle" size="13">横</text><text id="ProcessOnText1046" fill="#000000" font-size="13" x="6.5" y="29.575" font-family="微软雅黑" font-weight="normal" font-style="normal" text-decoration="none" family="微软雅黑" text-anchor="middle" size="13">向</text><text id="ProcessOnText1047" fill="#000000" font-size="13" x="6.5" y="45.825" font-family="微软雅黑" font-weight="normal" font-style="normal" text-decoration="none" family="微软雅黑" text-anchor="middle" size="13">控</text><text id="ProcessOnText1048" fill="#000000" font-size="13" x="6.5" y="62.075" font-family="微软雅黑" font-weight="normal" font-style="normal" text-decoration="none" family="微软雅黑" text-anchor="middle" size="13">制</text><text id="ProcessOnText1049" fill="#000000" font-size="13" x="6.5" y="78.325" font-family="微软雅黑" font-weight="normal" font-style="normal" text-decoration="none" family="微软雅黑" text-anchor="middle" size="13">器</text></g></g><g id="ProcessOnG1050" transform="matrix(1.0,0.0,0.0,1.0,520.5028533935547,231.01705169677734)" opacity="1.0"><path id="ProcessOnPath1051" d="M0.0 0.0L35.0 0.0L35.0 120.0L0.0 120.0Z" stroke="#323232" stroke-width="2.0" stroke-dasharray="none" opacity="1.0" fill="#ffffff"/><g id="ProcessOnG1052" transform="matrix(1.0,0.0,0.0,1.0,10.0,19.375)"><text id="ProcessOnText1053" fill="#000000" font-size="13" x="6.5" y="13.325" font-family="微软雅黑" font-weight="normal" font-style="normal" text-decoration="none" family="微软雅黑" text-anchor="middle" size="13">纵</text><text id="ProcessOnText1054" fill="#000000" font-size="13" x="6.5" y="29.575" font-family="微软雅黑" font-weight="normal" font-style="normal" text-decoration="none" family="微软雅黑" text-anchor="middle" size="13">向</text><text id="ProcessOnText1055" fill="#000000" font-size="13" x="6.5" y="45.825" font-family="微软雅黑" font-weight="normal" font-style="normal" text-decoration="none" family="微软雅黑" text-anchor="middle" size="13">控</text><text id="ProcessOnText1056" fill="#000000" font-size="13" x="6.5" y="62.075" font-family="微软雅黑" font-weight="normal" font-style="normal" text-decoration="none" family="微软雅黑" text-anchor="middle" size="13">制</text><text id="ProcessOnText1057" fill="#000000" font-size="13" x="6.5" y="78.325" font-family="微软雅黑" font-weight="normal" font-style="normal" text-decoration="none" family="微软雅黑" text-anchor="middle" size="13">器</text></g></g><g id="ProcessOnG1058" transform="matrix(1.0,0.0,0.0,1.0,602.5028533935547,234.01705169677734)" opacity="1.0"><path id="ProcessOnPath1059" d="M0.0 0.0L35.0 0.0L35.0 120.0L0.0 120.0Z" stroke="#323232" stroke-width="2.0" stroke-dasharray="none" opacity="1.0" fill="#ffffff"/><g id="ProcessOnG1060" transform="matrix(1.0,0.0,0.0,1.0,10.0,43.75)"><text id="ProcessOnText1061" fill="#000000" font-size="13" x="6.5" y="13.325" font-family="微软雅黑" font-weight="normal" font-style="normal" text-decoration="none" family="微软雅黑" text-anchor="middle" size="13">油</text><text id="ProcessOnText1062" fill="#000000" font-size="13" x="6.5" y="29.575" font-family="微软雅黑" font-weight="normal" font-style="normal" text-decoration="none" family="微软雅黑" text-anchor="middle" size="13">门</text></g></g><g id="ProcessOnG1063" transform="matrix(1.0,0.0,0.0,1.0,691.5028533935547,234.01705169677734)" opacity="1.0"><path id="ProcessOnPath1064" d="M0.0 0.0L35.0 0.0L35.0 120.0L0.0 120.0Z" stroke="#323232" stroke-width="2.0" stroke-dasharray="none" opacity="1.0" fill="#ffffff"/><g id="ProcessOnG1065" transform="matrix(1.0,0.0,0.0,1.0,10.0,35.625)"><text id="ProcessOnText1066" fill="#000000" font-size="13" x="6.5" y="13.325" font-family="微软雅黑" font-weight="normal" font-style="normal" text-decoration="none" family="微软雅黑" text-anchor="middle" size="13">转</text><text id="ProcessOnText1067" fill="#000000" font-size="13" x="6.5" y="29.575" font-family="微软雅黑" font-weight="normal" font-style="normal" text-decoration="none" family="微软雅黑" text-anchor="middle" size="13">向</text><text id="ProcessOnText1068" fill="#000000" font-size="13" x="6.5" y="45.825" font-family="微软雅黑" font-weight="normal" font-style="normal" text-decoration="none" family="微软雅黑" text-anchor="middle" size="13">角</text></g></g><g id="ProcessOnG1069" transform="matrix(1.0,0.0,0.0,1.0,645.0028533935547,234.01705169677734)" opacity="1.0"><path id="ProcessOnPath1070" d="M0.0 0.0L35.0 0.0L35.0 120.0L0.0 120.0Z" stroke="#323232" stroke-width="2.0" stroke-dasharray="none" opacity="1.0" fill="#ffffff"/><g id="ProcessOnG1071" transform="matrix(1.0,0.0,0.0,1.0,10.0,43.75)"><text id="ProcessOnText1072" fill="#000000" font-size="13" x="6.5" y="13.325" font-family="微软雅黑" font-weight="normal" font-style="normal" text-decoration="none" family="微软雅黑" text-anchor="middle" size="13">刹</text><text id="ProcessOnText1073" fill="#000000" font-size="13" x="6.5" y="29.575" font-family="微软雅黑" font-weight="normal" font-style="normal" text-decoration="none" family="微软雅黑" text-anchor="middle" size="13">车</text></g></g><g id="ProcessOnG1074"><path id="ProcessOnPath1075" d="M303.5028533935547 180.01705169677734L261.0028533935547 228.01705169677734" stroke="#323232" stroke-width="2.0" stroke-dasharray="none" fill="none"/></g><g id="ProcessOnG1076"><path id="ProcessOnPath1077" d="M303.5028533935547 180.01705169677734L346.0028533935547 228.01705169677734" stroke="#323232" stroke-width="2.0" stroke-dasharray="none" fill="none"/></g><g id="ProcessOnG1078"><path id="ProcessOnPath1079" d="M495.5028533935547 180.01705169677734L453.0028533935547 231.01705169677734" stroke="#323232" stroke-width="2.0" stroke-dasharray="none" fill="none"/></g><g id="ProcessOnG1080"><path id="ProcessOnPath1081" d="M495.5028533935547 180.01705169677734L538.0028533935547 231.01705169677734" stroke="#323232" stroke-width="2.0" stroke-dasharray="none" fill="none"/></g><g id="ProcessOnG1082"><path id="ProcessOnPath1083" d="M662.5028533935547 180.01705169677734L620.0028533935547 234.01705169677734" stroke="#323232" stroke-width="2.0" stroke-dasharray="none" fill="none"/></g><g id="ProcessOnG1084"><path id="ProcessOnPath1085" d="M662.5028533935547 180.01705169677734L662.5028533935547 234.01705169677734" stroke="#323232" stroke-width="2.0" stroke-dasharray="none" fill="none"/></g><g id="ProcessOnG1086"><path id="ProcessOnPath1087" d="M662.5028533935547 180.01705169677734L709.0028533935547 234.01705169677734" stroke="#323232" stroke-width="2.0" stroke-dasharray="none" fill="none"/></g></g></g></svg>